HIERARCHY
ROOT Hips
{
    OFFSET 0.000000 0.000000 0.000000
    CHANNELS 6 Xposition Yposition Zposition Zrotation Xrotation Yrotation
    JOINT Spine
    {
        OFFSET -0.000000 7.236184 0.000000
        CHANNELS 3 Zrotation Xrotation Yrotation
        JOINT Spine1
        {
            OFFSET -0.000000 20.420147 0.000000
            CHANNELS 3 Zrotation Xrotation Yrotation
            JOINT Neck
            {
                OFFSET -0.000000 20.336288 1.848754
                CHANNELS 3 Zrotation Xrotation Yrotation
                JOINT Head
                {
                    OFFSET -0.000000 12.354461 -1.764923
                    CHANNELS 3 Zrotation Xrotation Yrotation
                    End Site
                    {
                        OFFSET -0.000000 22.061537 0.000000
                    }
                }
            }
            JOINT LeftShoulder
            {
                OFFSET 3.573296 18.396038 -0.314103
                CHANNELS 3 Zrotation Xrotation Yrotation
                JOINT LeftArm
                {
                    OFFSET 10.880760 0.000000 0.000000
                    CHANNELS 3 Zrotation Xrotation Yrotation
                    JOINT LeftForeArm
                    {
                        OFFSET 27.185530 0.000000 0.000000
                        CHANNELS 3 Zrotation Xrotation Yrotation
                        JOINT LeftHand
                        {
                            OFFSET 27.825975 0.000000 0.000000
                            CHANNELS 3 Zrotation Xrotation Yrotation
                            End Site
                            {
                                OFFSET 13.236923 0.000000 0.000000
                            }
                        }
                    }
                }
            }
            JOINT RightShoulder
            {
                OFFSET -3.474926 18.396038 -0.314103
                CHANNELS 3 Zrotation Xrotation Yrotation
                JOINT RightArm
                {
                    OFFSET -10.880760 0.000000 0.000000
                    CHANNELS 3 Zrotation Xrotation Yrotation
                    JOINT RightForeArm
                    {
                        OFFSET -27.185530 0.000000 0.000000
                        CHANNELS 3 Zrotation Xrotation Yrotation
                        JOINT RightHand
                        {
                            OFFSET -27.825975 0.000000 0.000000
                            CHANNELS 3 Zrotation Xrotation Yrotation
                            End Site
                            {
                                OFFSET -13.236923 0.000000 0.000000
                            }
                        }
                    }
                }
            }
        }
    }
    JOINT LeftUpLeg
    {
        OFFSET 8.824615 0.000000 0.000000
        CHANNELS 3 Zrotation Xrotation Yrotation
        JOINT LeftLeg
        {
            OFFSET -0.000000 -35.111282 0.000000
            CHANNELS 3 Zrotation Xrotation Yrotation
            JOINT LeftFoot
            {
                OFFSET -0.000000 -42.324711 0.000000
                CHANNELS 3 Zrotation Xrotation Yrotation
                JOINT LeftToeBase
                {
                    OFFSET -0.000000 -5.735999 13.236923
                    CHANNELS 3 Zrotation Xrotation Yrotation
                    End Site
                    {
                        OFFSET -0.000000 0.000000 3.529846
                    }
                }
            }
        }
    }
    JOINT RightUpLeg
    {
        OFFSET -8.824615 0.000000 0.000000
        CHANNELS 3 Zrotation Xrotation Yrotation
        JOINT RightLeg
        {
            OFFSET -0.000000 -35.111282 0.000000
            CHANNELS 3 Zrotation Xrotation Yrotation
            JOINT RightFoot
            {
                OFFSET -0.000000 -42.324711 0.000000
                CHANNELS 3 Zrotation Xrotation Yrotation
                JOINT RightToeBase
                {
                    OFFSET -0.000000 -5.735999 13.236923
                    CHANNELS 3 Zrotation Xrotation Yrotation
                    End Site
                    {
                        OFFSET -0.000000 0.000000 3.529846
                    }
                }
            }
        }
    }
}
MOTION
Frames:    9
Frame Time:    0.008333
0.043807    83.519569    100.628471    -0.927960    -9.044227    -174.113739    -0.876893    -18.027422    2.337068    0.618627    8.653146    2.429384    0.246909    6.613738    -2.718610    6.205344    -2.244546    -1.846145    0.482355    18.963369    -1.076544    -47.214508    44.113182    -36.125507    -0.219341    -5.940439    -13.232570    15.953522    -5.425461    3.873364    8.405894    21.832890    -6.252190    39.897045    46.026100    34.723595    -3.989028    -11.749197    24.412148    -14.998691    -10.361260    -4.183373    3.915782    -14.492350    -4.496935    0.169876    15.991166    1.701949    -5.467509    -9.672534    -13.598631    -0.336371    1.367983    0.371950    -11.508641    -3.157087    -3.846756    1.540085    2.111627    -3.839751    7.086204    -4.315071    -8.692692    -0.553363    -0.150116    0.598628    
0.021512    83.519852    100.620064    -0.922615    -9.067740    -174.115829    -0.871359    -18.033188    2.361720    0.592107    8.656325    2.455201    0.237649    6.585924    -2.731762    6.232048    -2.257576    -1.854018    0.491527    18.952290    -1.046946    -47.312584    44.165787    -35.971676    -0.238761    -5.982305    -13.264338    15.932362    -5.477967    3.819107    8.427316    21.831215    -6.232965    39.791142    46.055981    34.907478    -4.029026    -11.694366    24.429090    -15.043917    -10.293500    -4.197746    3.901106    -14.517897    -4.518534    0.169476    16.008930    1.718523    -5.456964    -9.691916    -13.595446    -0.329347    1.370436    0.364181    -11.516303    -3.166362    -3.865860    1.533489    2.095952    -3.850007    7.107321    -4.307283    -8.670732    -0.554338    -0.150454    0.599683    
-0.000232    83.520111    100.611946    -0.917323    -9.091064    -174.117325    -0.866026    -18.038851    2.385827    0.566212    8.659412    2.480426    0.228216    6.558853    -2.744830    6.258252    -2.271187    -1.861877    0.499651    18.940739    -1.016958    -47.411999    44.215145    -35.819534    -0.257475    -6.023468    -13.293309    15.916114    -5.529003    3.768393    8.448592    21.829945    -6.214456    39.686142    46.084362    35.088455    -4.068030    -11.640623    24.446383    -15.089886    -10.226951    -4.212577    3.886698    -14.543766    -4.539867    0.169047    16.027021    1.733128    -5.446118    -9.711184    -13.590911    -0.322436    1.372221    0.356538    -11.523770    -3.175676    -3.884961    1.527036    2.080617    -3.859979    7.127303    -4.299387    -8.649085    -0.554526    -0.151641    0.599887    
-0.021761    83.520363    100.604034    -0.911856    -9.114572    -174.117737    -0.861104    -18.043821    2.409756    0.541140    8.661967    2.505515    0.217472    6.532452    -2.758419    6.285054    -2.286749    -1.869926    0.506118    18.928123    -0.985103    -47.516949    44.260731    -35.665756    -0.275847    -6.065090    -13.318593    15.908563    -5.579469    3.722723    8.469609    21.829161    -6.196834    39.579876    46.112026    35.270340    -4.106727    -11.587014    24.465218    -15.138569    -10.160180    -4.229027    3.872447    -14.570902    -4.561758    0.168380    16.046591    1.744175    -5.434200    -9.731228    -13.583063    -0.315635    1.373741    0.349017    -11.530970    -3.184937    -3.905065    1.520450    2.065151    -3.869786    7.145898    -4.290762    -8.626861    -0.553114    -0.153860    0.598362    
-0.042529    83.520554    100.596558    -0.906348    -9.137832    -174.116577    -0.857329    -18.047716    2.432903    0.518486    8.663434    2.529794    0.205060    6.507397    -2.772489    6.311766    -2.303928    -1.878242    0.509698    18.914616    -0.951281    -47.626671    44.300598    -35.513889    -0.293226    -6.106774    -13.338082    15.912814    -5.628450    3.684457    8.489551    21.829565    -6.181136    39.474319    46.138073    35.449665    -4.143770    -11.534600    24.485836    -15.190210    -10.094509    -4.247247    3.858392    -14.599225    -4.583640    0.167894    16.067848    1.749762    -5.421433    -9.751884    -13.571054    -0.309124    1.374572    0.341817    -11.537790    -3.193900    -3.925964    1.513920    2.049880    -3.879209    7.161967    -4.281287    -8.604382    -0.549295    -0.157771    0.594234    
-0.062729    83.520706    100.589577    -0.900882    -9.161196    -174.113434    -0.855310    -18.050087    2.455415    0.498961    8.663002    2.553483    0.190299    6.484059    -2.787443    6.338578    -2.323474    -1.887091    0.510048    18.899748    -0.915055    -47.743820    44.334717    -35.361805    -0.309729    -6.149543    -13.351263    15.930093    -5.676962    3.653501    8.507846    21.831421    -6.167474    39.368210    46.163269    35.628368    -4.179406    -11.482948    24.509073    -15.245822    -10.029317    -4.268002    3.843985    -14.629689    -4.605911    0.167847    16.091829    1.748260    -5.407408    -9.773693    -13.553315    -0.302899    1.374427    0.334933    -11.544560    -3.202693    -3.948235    1.507514    2.034625    -3.888441    7.175776    -4.270832    -8.581353    -0.543086    -0.163602    0.587522    
-0.082332    83.520744    100.583038    -0.895214    -9.184285    -174.107880    -0.854813    -18.050459    2.477274    0.482534    8.660690    2.576522    0.172921    6.462503    -2.803421    6.365897    -2.345582    -1.896542    0.506821    18.883274    -0.875844    -47.869160    44.362663    -35.209423    -0.325396    -6.194346    -13.357508    15.960632    -5.726037    3.629298    8.524334    21.834578    -6.155806    39.261620    46.187874    35.806374    -4.213626    -11.431881    24.535561    -15.305325    -9.964314    -4.291485    3.829313    -14.662363    -4.628427    0.168459    16.119232    1.737669    -5.392110    -9.796958    -13.528491    -0.297019    1.373132    0.328433    -11.550922    -3.210681    -3.972284    1.501120    2.019080    -3.897989    7.188152    -4.259645    -8.557509    -0.535280    -0.170397    0.579082    
-0.101233    83.520660    100.577080    -0.889496    -9.207192    -174.099670    -0.855432    -18.049353    2.498393    0.468309    8.657254    2.598851    0.153557    6.441979    -2.820338    6.393376    -2.369420    -1.906656    0.500612    18.864796    -0.834104    -48.003071    44.383469    -35.057098    -0.340102    -6.241701    -13.356487    16.002619    -5.776395    3.610728    8.539317    21.838295    -6.145972    39.155273    46.212158    35.982090    -4.246074    -11.381643    24.565405    -15.367968    -9.899907    -4.317670    3.813908    -14.697696    -4.650743    0.170456    16.150681    1.716456    -5.375785    -9.821833    -13.495933    -0.291658    1.370498    0.322507    -11.557141    -3.217914    -3.997938    1.494951    2.003243    -3.907673    7.199818    -4.248361    -8.533869    -0.526920    -0.177324    0.570044    
-0.119693    83.520378    100.571548    -0.883404    -9.229792    -174.088379    -0.856044    -18.046900    2.519189    0.454388    8.653766    2.620784    0.132900    6.422043    -2.838322    6.421391    -2.395708    -1.917521    0.492304    18.844084    -0.789749    -48.149006    44.395367    -34.901794    -0.354361    -6.293453    -13.347835    16.053173    -5.830266    3.595972    8.553827    21.841702    -6.136616    39.047974    46.236507    36.156723    -4.277149    -11.331487    24.599644    -15.433362    -9.835109    -4.347085    3.797508    -14.736191    -4.672792    0.174479    16.187443    1.682090    -5.358326    -9.849008    -13.453857    -0.286746    1.366550    0.317077    -11.563024    -3.223792    -4.025513    1.488891    1.986699    -3.917831    7.211832    -4.237168    -8.510365    -0.518546    -0.183809    0.560990    
